<svg width="167" height="167" viewBox="0 0 167 167" fill="none" xmlns="http://www.w3.org/2000/svg">
<circle cx="83.1635" cy="83.5173" r="83" fill="#E0AD29"/>
<path d="M49.4154 127.517V35.0955H81.7885C93.0027 35.0955 101.509 37.2537 107.306 41.5701C113.104 45.8442 116.002 52.1283 116.002 60.4226C116.002 64.9506 114.839 68.9496 112.511 72.4197C110.184 75.8474 106.946 78.3653 102.799 79.9734C107.539 81.1583 111.263 83.5492 113.971 87.1462C116.722 90.7432 118.097 95.1443 118.097 100.349C118.097 109.236 115.262 115.965 109.591 120.535C103.921 125.105 95.838 127.433 85.3432 127.517H49.4154ZM68.4584 87.2732V112.219H84.7719C89.2576 112.219 92.7488 111.162 95.2455 109.046C97.7846 106.887 99.0541 103.925 99.0541 100.159C99.0541 91.6954 94.6742 87.4001 85.9145 87.2732H68.4584ZM68.4584 73.8162H82.5502C92.1563 73.6469 96.9594 69.8171 96.9594 62.3269C96.9594 58.1375 95.7322 55.1329 93.2777 53.3132C90.8656 51.4513 87.0359 50.5203 81.7885 50.5203H68.4584V73.8162Z" fill="#F2F0F0"/>
</svg>
