<svg width="167" height="167" viewBox="0 0 167 167" fill="none" xmlns="http://www.w3.org/2000/svg">
<circle cx="83.1635" cy="83.5173" r="83" fill="#CD7C1F"/>
<path d="M120.969 96.7312C120.25 106.676 116.568 114.505 109.924 120.218C103.323 125.93 94.6052 128.787 83.7719 128.787C71.9229 128.787 62.5918 124.809 55.7787 116.853C49.0079 108.855 45.6224 97.8949 45.6224 83.9724V78.323C45.6224 69.4363 47.1882 61.6075 50.3197 54.8367C53.4512 48.0658 57.9157 42.8819 63.7133 39.2849C69.5531 35.6456 76.3239 33.8259 84.0258 33.8259C94.6898 33.8259 103.28 36.6824 109.797 42.3953C116.314 48.1082 120.08 56.1274 121.096 66.4529H102.053C101.588 60.4861 99.9161 56.1697 97.0385 53.5037C94.2032 50.7953 89.8656 49.4412 84.0258 49.4412C77.6781 49.4412 72.9174 51.7263 69.7435 56.2966C66.612 60.8246 65.0039 67.8705 64.9193 77.4343V84.4167C64.9193 94.4037 66.4216 101.704 69.4261 106.316C72.473 110.929 77.2549 113.235 83.7719 113.235C89.654 113.235 94.0339 111.902 96.9115 109.236C99.8314 106.528 101.503 102.359 101.926 96.7312H120.969Z" fill="#F2F0F0"/>
</svg>
