<svg width="206" height="207" viewBox="0 0 206 207" fill="none" xmlns="http://www.w3.org/2000/svg">
<rect x="20" y="20.2903" width="166" height="166" rx="83" fill="#CD7C1F"/>
<path d="M92.5264 118.916C92.5264 112.992 93.2458 108.273 94.6846 104.761C96.1234 101.249 98.7471 97.7997 102.556 94.4143C106.407 90.9866 108.967 88.2148 110.236 86.0989C111.506 83.9407 112.141 81.6767 112.141 79.3069C112.141 72.1552 108.84 68.5793 102.238 68.5793C99.1068 68.5793 96.5889 69.5527 94.6846 71.4993C92.8226 73.4036 91.8493 76.0484 91.7646 79.4338H73.3564C73.4411 71.3512 76.0436 65.0247 81.1641 60.4543C86.3268 55.884 93.3516 53.5989 102.238 53.5989C111.21 53.5989 118.171 55.7782 123.122 60.137C128.073 64.4534 130.549 70.5683 130.549 78.4817C130.549 82.0787 129.745 85.4853 128.137 88.7014C126.529 91.8752 123.715 95.4088 119.694 99.302L114.553 104.19C111.337 107.279 109.496 110.897 109.03 115.044L108.776 118.916H92.5264ZM90.6855 138.404C90.6855 135.568 91.6377 133.241 93.542 131.421C95.4886 129.559 97.9642 128.628 100.969 128.628C103.973 128.628 106.428 129.559 108.332 131.421C110.279 133.241 111.252 135.568 111.252 138.404C111.252 141.197 110.3 143.503 108.396 145.323C106.534 147.142 104.058 148.052 100.969 148.052C97.8796 148.052 95.3828 147.142 93.4785 145.323C91.6165 143.503 90.6855 141.197 90.6855 138.404Z" fill="#F2F0F0"/>
</svg>
