<svg width="167" height="167" viewBox="0 0 167 167" fill="none" xmlns="http://www.w3.org/2000/svg">
<g clip-path="url(#clip0)">
<rect x="0.5" y="0.290283" width="166" height="166" rx="83" fill="#C62323"/>
<path d="M127.075 39.7844C124.378 37.0869 120.02 37.0869 117.323 39.7844L83.5 73.5378L49.6775 39.7153C46.98 37.0178 42.6225 37.0178 39.925 39.7153C37.2275 42.4128 37.2275 46.7703 39.925 49.4678L73.7475 83.2903L39.925 117.113C37.2275 119.81 37.2275 124.168 39.925 126.865C42.6225 129.563 46.98 129.563 49.6775 126.865L83.5 93.0428L117.323 126.865C120.02 129.563 124.378 129.563 127.075 126.865C129.772 124.168 129.772 119.81 127.075 117.113L93.2525 83.2903L127.075 49.4678C129.703 46.8394 129.703 42.4128 127.075 39.7844Z" fill="#F2F0F0"/>
</g>
<defs>
<clipPath id="clip0">
<rect x="0.5" y="0.290283" width="166" height="166" rx="83" fill="white"/>
</clipPath>
</defs>
</svg>
