<svg width="2360" height="966" viewBox="0 0 2360 966" fill="none" xmlns="http://www.w3.org/2000/svg">
<path d="M236.646 834.672L242.125 850.141L247.574 834.672H253.346V856H248.937V850.17L249.376 840.106L243.619 856H240.602L234.859 840.121L235.299 850.17V856H230.904V834.672H236.646ZM262.926 834.672L268.404 850.141L273.854 834.672H279.625V856H275.216V850.17L275.655 840.106L269.898 856H266.881L261.139 840.121L261.578 850.17V856H257.184V834.672H262.926ZM284.518 857.831H281.368L289.22 834.672H292.369L284.518 857.831ZM302.037 844.281L306.476 834.672H311.28L304.278 848.266V856H299.811V848.266L292.809 834.672H297.628L302.037 844.281ZM320.846 844.281L325.284 834.672H330.089L323.087 848.266V856H318.619V848.266L311.617 834.672H316.437L320.846 844.281Z" fill="#C7BCC5"/>
<path d="M865.646 834.672L871.125 850.141L876.574 834.672H882.346V856H877.937V850.17L878.376 840.106L872.619 856H869.602L863.859 840.121L864.299 850.17V856H859.904V834.672H865.646ZM891.926 834.672L897.404 850.141L902.854 834.672H908.625V856H904.216V850.17L904.655 840.106L898.898 856H895.881L890.139 840.121L890.578 850.17V856H886.184V834.672H891.926ZM913.518 857.831H910.368L918.22 834.672H921.369L913.518 857.831ZM931.037 844.281L935.476 834.672H940.28L933.278 848.266V856H928.811V848.266L921.809 834.672H926.628L931.037 844.281ZM949.846 844.281L954.284 834.672H959.089L952.087 848.266V856H947.619V848.266L940.617 834.672H945.437L949.846 844.281Z" fill="#C7BCC5"/>
<path d="M1495.65 834.672L1501.12 850.141L1506.57 834.672H1512.35V856H1507.94V850.17L1508.38 840.106L1502.62 856H1499.6L1493.86 840.121L1494.3 850.17V856H1489.9V834.672H1495.65ZM1521.93 834.672L1527.4 850.141L1532.85 834.672H1538.62V856H1534.22V850.17L1534.66 840.106L1528.9 856H1525.88L1520.14 840.121L1520.58 850.17V856H1516.18V834.672H1521.93ZM1543.52 857.831H1540.37L1548.22 834.672H1551.37L1543.52 857.831ZM1561.04 844.281L1565.48 834.672H1570.28L1563.28 848.266V856H1558.81V848.266L1551.81 834.672H1556.63L1561.04 844.281ZM1579.85 844.281L1584.28 834.672H1589.09L1582.09 848.266V856H1577.62V848.266L1570.62 834.672H1575.44L1579.85 844.281Z" fill="#C7BCC5"/>
<path d="M550.646 834.672L556.125 850.141L561.574 834.672H567.346V856H562.937V850.17L563.376 840.106L557.619 856H554.602L548.859 840.121L549.299 850.17V856H544.904V834.672H550.646ZM576.926 834.672L582.404 850.141L587.854 834.672H593.625V856H589.216V850.17L589.655 840.106L583.898 856H580.881L575.139 840.121L575.578 850.17V856H571.184V834.672H576.926ZM598.518 857.831H595.368L603.22 834.672H606.369L598.518 857.831ZM616.037 844.281L620.476 834.672H625.28L618.278 848.266V856H613.811V848.266L606.809 834.672H611.628L616.037 844.281ZM634.846 844.281L639.284 834.672H644.089L637.087 848.266V856H632.619V848.266L625.617 834.672H630.437L634.846 844.281Z" fill="#C7BCC5"/>
<path d="M1180.65 834.672L1186.12 850.141L1191.57 834.672H1197.35V856H1192.94V850.17L1193.38 840.106L1187.62 856H1184.6L1178.86 840.121L1179.3 850.17V856H1174.9V834.672H1180.65ZM1206.93 834.672L1212.4 850.141L1217.85 834.672H1223.62V856H1219.22V850.17L1219.66 840.106L1213.9 856H1210.88L1205.14 840.121L1205.58 850.17V856H1201.18V834.672H1206.93ZM1228.52 857.831H1225.37L1233.22 834.672H1236.37L1228.52 857.831ZM1246.04 844.281L1250.48 834.672H1255.28L1248.28 848.266V856H1243.81V848.266L1236.81 834.672H1241.63L1246.04 844.281ZM1264.85 844.281L1269.28 834.672H1274.09L1267.09 848.266V856H1262.62V848.266L1255.62 834.672H1260.44L1264.85 844.281Z" fill="#C7BCC5"/>
<path d="M1809.65 834.672L1815.12 850.141L1820.57 834.672H1826.35V856H1821.94V850.17L1822.38 840.106L1816.62 856H1813.6L1807.86 840.121L1808.3 850.17V856H1803.9V834.672H1809.65ZM1835.93 834.672L1841.4 850.141L1846.85 834.672H1852.62V856H1848.22V850.17L1848.66 840.106L1842.9 856H1839.88L1834.14 840.121L1834.58 850.17V856H1830.18V834.672H1835.93ZM1857.52 857.831H1854.37L1862.22 834.672H1865.37L1857.52 857.831ZM1875.04 844.281L1879.48 834.672H1884.28L1877.28 848.266V856H1872.81V848.266L1865.81 834.672H1870.63L1875.04 844.281ZM1893.85 844.281L1898.28 834.672H1903.09L1896.09 848.266V856H1891.62V848.266L1884.62 834.672H1889.44L1893.85 844.281Z" fill="#C7BCC5"/>
<path d="M393.646 834.672L399.125 850.141L404.574 834.672H410.346V856H405.937V850.17L406.376 840.106L400.619 856H397.602L391.859 840.121L392.299 850.17V856H387.904V834.672H393.646ZM419.926 834.672L425.404 850.141L430.854 834.672H436.625V856H432.216V850.17L432.655 840.106L426.898 856H423.881L418.139 840.121L418.578 850.17V856H414.184V834.672H419.926ZM441.518 857.831H438.368L446.22 834.672H449.369L441.518 857.831ZM459.037 844.281L463.476 834.672H468.28L461.278 848.266V856H456.811V848.266L449.809 834.672H454.628L459.037 844.281ZM477.846 844.281L482.284 834.672H487.089L480.087 848.266V856H475.619V848.266L468.617 834.672H473.437L477.846 844.281Z" fill="#C7BCC5"/>
<path d="M1023.65 834.672L1029.12 850.141L1034.57 834.672H1040.35V856H1035.94V850.17L1036.38 840.106L1030.62 856H1027.6L1021.86 840.121L1022.3 850.17V856H1017.9V834.672H1023.65ZM1049.93 834.672L1055.4 850.141L1060.85 834.672H1066.62V856H1062.22V850.17L1062.66 840.106L1056.9 856H1053.88L1048.14 840.121L1048.58 850.17V856H1044.18V834.672H1049.93ZM1071.52 857.831H1068.37L1076.22 834.672H1079.37L1071.52 857.831ZM1089.04 844.281L1093.48 834.672H1098.28L1091.28 848.266V856H1086.81V848.266L1079.81 834.672H1084.63L1089.04 844.281ZM1107.85 844.281L1112.28 834.672H1117.09L1110.09 848.266V856H1105.62V848.266L1098.62 834.672H1103.44L1107.85 844.281Z" fill="#C7BCC5"/>
<path d="M1652.65 834.672L1658.12 850.141L1663.57 834.672H1669.35V856H1664.94V850.17L1665.38 840.106L1659.62 856H1656.6L1650.86 840.121L1651.3 850.17V856H1646.9V834.672H1652.65ZM1678.93 834.672L1684.4 850.141L1689.85 834.672H1695.62V856H1691.22V850.17L1691.66 840.106L1685.9 856H1682.88L1677.14 840.121L1677.58 850.17V856H1673.18V834.672H1678.93ZM1700.52 857.831H1697.37L1705.22 834.672H1708.37L1700.52 857.831ZM1718.04 844.281L1722.48 834.672H1727.28L1720.28 848.266V856H1715.81V848.266L1708.81 834.672H1713.63L1718.04 844.281ZM1736.85 844.281L1741.28 834.672H1746.09L1739.09 848.266V856H1734.62V848.266L1727.62 834.672H1732.44L1736.85 844.281Z" fill="#C7BCC5"/>
<path d="M708.646 834.672L714.125 850.141L719.574 834.672H725.346V856H720.937V850.17L721.376 840.106L715.619 856H712.602L706.859 840.121L707.299 850.17V856H702.904V834.672H708.646ZM734.926 834.672L740.404 850.141L745.854 834.672H751.625V856H747.216V850.17L747.655 840.106L741.898 856H738.881L733.139 840.121L733.578 850.17V856H729.184V834.672H734.926ZM756.518 857.831H753.368L761.22 834.672H764.369L756.518 857.831ZM774.037 844.281L778.476 834.672H783.28L776.278 848.266V856H771.811V848.266L764.809 834.672H769.628L774.037 844.281ZM792.846 844.281L797.284 834.672H802.089L795.087 848.266V856H790.619V848.266L783.617 834.672H788.437L792.846 844.281Z" fill="#C7BCC5"/>
<path d="M1337.65 834.672L1343.12 850.141L1348.57 834.672H1354.35V856H1349.94V850.17L1350.38 840.106L1344.62 856H1341.6L1335.86 840.121L1336.3 850.17V856H1331.9V834.672H1337.65ZM1363.93 834.672L1369.4 850.141L1374.85 834.672H1380.62V856H1376.22V850.17L1376.66 840.106L1370.9 856H1367.88L1362.14 840.121L1362.58 850.17V856H1358.18V834.672H1363.93ZM1385.52 857.831H1382.37L1390.22 834.672H1393.37L1385.52 857.831ZM1403.04 844.281L1407.48 834.672H1412.28L1405.28 848.266V856H1400.81V848.266L1393.81 834.672H1398.63L1403.04 844.281ZM1421.85 844.281L1426.28 834.672H1431.09L1424.09 848.266V856H1419.62V848.266L1412.62 834.672H1417.44L1421.85 844.281Z" fill="#C7BCC5"/>
<path d="M1967.65 834.672L1973.12 850.141L1978.57 834.672H1984.35V856H1979.94V850.17L1980.38 840.106L1974.62 856H1971.6L1965.86 840.121L1966.3 850.17V856H1961.9V834.672H1967.65ZM1993.93 834.672L1999.4 850.141L2004.85 834.672H2010.62V856H2006.22V850.17L2006.66 840.106L2000.9 856H1997.88L1992.14 840.121L1992.58 850.17V856H1988.18V834.672H1993.93ZM2015.52 857.831H2012.37L2020.22 834.672H2023.37L2015.52 857.831ZM2033.04 844.281L2037.48 834.672H2042.28L2035.28 848.266V856H2030.81V848.266L2023.81 834.672H2028.63L2033.04 844.281ZM2051.85 844.281L2056.28 834.672H2061.09L2054.09 848.266V856H2049.62V848.266L2042.62 834.672H2047.44L2051.85 844.281Z" fill="#C7BCC5"/>
<path d="M204 57V803H2088" stroke="#C7BCC5" stroke-width="3"/>
<path d="M1623.18 931.406L1629.75 949.969L1636.29 931.406H1643.21V957H1637.92V950.004L1638.45 937.928L1631.54 957H1627.92L1621.03 937.945L1621.56 950.004V957H1616.29V931.406H1623.18ZM1646.7 947.314C1646.7 945.428 1647.06 943.746 1647.79 942.27C1648.51 940.793 1649.55 939.65 1650.91 938.842C1652.29 938.033 1653.87 937.629 1655.68 937.629C1658.24 937.629 1660.34 938.414 1661.95 939.984C1663.58 941.555 1664.49 943.688 1664.68 946.383L1664.71 947.684C1664.71 950.602 1663.9 952.945 1662.27 954.715C1660.64 956.473 1658.46 957.352 1655.71 957.352C1652.97 957.352 1650.78 956.473 1649.14 954.715C1647.51 952.957 1646.7 950.566 1646.7 947.543V947.314ZM1651.78 947.684C1651.78 949.488 1652.12 950.871 1652.79 951.832C1653.47 952.781 1654.45 953.256 1655.71 953.256C1656.94 953.256 1657.9 952.787 1658.6 951.85C1659.29 950.9 1659.63 949.389 1659.63 947.314C1659.63 945.545 1659.29 944.174 1658.6 943.201C1657.9 942.229 1656.93 941.742 1655.68 941.742C1654.44 941.742 1653.47 942.229 1652.79 943.201C1652.12 944.162 1651.78 945.656 1651.78 947.684ZM1672.52 937.98L1672.68 940.178C1674.04 938.479 1675.86 937.629 1678.14 937.629C1680.16 937.629 1681.66 938.221 1682.64 939.404C1683.63 940.588 1684.13 942.357 1684.15 944.713V957H1679.07V944.836C1679.07 943.758 1678.84 942.979 1678.37 942.498C1677.9 942.006 1677.12 941.76 1676.03 941.76C1674.6 941.76 1673.53 942.369 1672.82 943.588V957H1667.74V937.98H1672.52ZM1694.1 933.305V937.98H1697.36V941.707H1694.1V951.199C1694.1 951.902 1694.24 952.406 1694.51 952.711C1694.78 953.016 1695.29 953.168 1696.05 953.168C1696.62 953.168 1697.12 953.127 1697.55 953.045V956.895C1696.55 957.199 1695.53 957.352 1694.47 957.352C1690.91 957.352 1689.09 955.553 1689.02 951.955V941.707H1686.25V937.98H1689.02V933.305H1694.1ZM1705.14 940.055C1706.49 938.438 1708.18 937.629 1710.22 937.629C1714.35 937.629 1716.44 940.025 1716.5 944.818V957H1711.42V944.959C1711.42 943.869 1711.18 943.066 1710.71 942.551C1710.25 942.023 1709.47 941.76 1708.38 941.76C1706.89 941.76 1705.81 942.334 1705.14 943.482V957H1700.06V930H1705.14V940.055ZM1725.69 957H1720.59V930H1725.69V957ZM1736.99 949.811L1740.51 937.98H1745.96L1738.31 959.953L1737.89 960.955C1736.75 963.439 1734.88 964.682 1732.27 964.682C1731.53 964.682 1730.78 964.57 1730.02 964.348V960.498L1730.79 960.516C1731.75 960.516 1732.46 960.369 1732.93 960.076C1733.41 959.783 1733.79 959.297 1734.06 958.617L1734.66 957.053L1727.99 937.98H1733.46L1736.99 949.811ZM1767.62 942.744C1766.92 942.65 1766.31 942.604 1765.79 942.604C1763.87 942.604 1762.61 943.254 1762.01 944.555V957H1756.93V937.98H1761.73L1761.87 940.248C1762.89 938.502 1764.3 937.629 1766.1 937.629C1766.67 937.629 1767.19 937.705 1767.69 937.857L1767.62 942.744ZM1778.48 957.352C1775.69 957.352 1773.42 956.496 1771.66 954.785C1769.91 953.074 1769.04 950.795 1769.04 947.947V947.455C1769.04 945.545 1769.41 943.84 1770.15 942.34C1770.88 940.828 1771.93 939.668 1773.28 938.859C1774.63 938.039 1776.18 937.629 1777.92 937.629C1780.52 937.629 1782.56 938.449 1784.05 940.09C1785.55 941.73 1786.3 944.057 1786.3 947.068V949.143H1774.19C1774.35 950.385 1774.85 951.381 1775.67 952.131C1776.5 952.881 1777.55 953.256 1778.81 953.256C1780.77 953.256 1782.3 952.547 1783.4 951.129L1785.9 953.924C1785.13 955.002 1784.1 955.846 1782.8 956.455C1781.5 957.053 1780.06 957.352 1778.48 957.352ZM1777.9 941.742C1776.89 941.742 1776.07 942.082 1775.44 942.762C1774.82 943.441 1774.42 944.414 1774.24 945.68H1781.31V945.275C1781.29 944.15 1780.98 943.283 1780.39 942.674C1779.81 942.053 1778.98 941.742 1777.9 941.742ZM1793.88 937.98L1794.04 940.178C1795.39 938.479 1797.22 937.629 1799.5 937.629C1801.52 937.629 1803.02 938.221 1804 939.404C1804.99 940.588 1805.49 942.357 1805.51 944.713V957H1800.43V944.836C1800.43 943.758 1800.2 942.979 1799.73 942.498C1799.26 942.006 1798.48 941.76 1797.39 941.76C1795.96 941.76 1794.89 942.369 1794.18 943.588V957H1789.1V937.98H1793.88ZM1815.46 933.305V937.98H1818.71V941.707H1815.46V951.199C1815.46 951.902 1815.6 952.406 1815.87 952.711C1816.14 953.016 1816.65 953.168 1817.41 953.168C1817.98 953.168 1818.47 953.127 1818.91 953.045V956.895C1817.91 957.199 1816.89 957.352 1815.83 957.352C1812.27 957.352 1810.45 955.553 1810.38 951.955V941.707H1807.61V937.98H1810.38V933.305H1815.46ZM1832.57 957C1832.33 956.543 1832.16 955.975 1832.06 955.295C1830.83 956.666 1829.23 957.352 1827.26 957.352C1825.39 957.352 1823.85 956.812 1822.62 955.734C1821.4 954.656 1820.79 953.297 1820.79 951.656C1820.79 949.641 1821.53 948.094 1823.02 947.016C1824.52 945.938 1826.68 945.393 1829.51 945.381H1831.85V944.291C1831.85 943.412 1831.62 942.709 1831.16 942.182C1830.71 941.654 1830.01 941.391 1829.03 941.391C1828.18 941.391 1827.5 941.596 1827.01 942.006C1826.53 942.416 1826.29 942.979 1826.29 943.693H1821.21C1821.21 942.592 1821.55 941.572 1822.23 940.635C1822.91 939.697 1823.87 938.965 1825.11 938.438C1826.36 937.898 1827.75 937.629 1829.3 937.629C1831.64 937.629 1833.5 938.221 1834.87 939.404C1836.25 940.576 1836.94 942.229 1836.94 944.361V952.605C1836.96 954.41 1837.21 955.775 1837.7 956.701V957H1832.57ZM1828.37 953.467C1829.12 953.467 1829.81 953.303 1830.44 952.975C1831.07 952.635 1831.54 952.184 1831.85 951.621V948.352H1829.95C1827.4 948.352 1826.05 949.23 1825.89 950.988L1825.87 951.287C1825.87 951.92 1826.09 952.441 1826.54 952.852C1826.98 953.262 1827.59 953.467 1828.37 953.467ZM1846.21 957H1841.11V930H1846.21V957ZM1870.39 957C1870.16 956.543 1869.99 955.975 1869.88 955.295C1868.65 956.666 1867.05 957.352 1865.09 957.352C1863.22 957.352 1861.68 956.812 1860.45 955.734C1859.23 954.656 1858.62 953.297 1858.62 951.656C1858.62 949.641 1859.36 948.094 1860.85 947.016C1862.35 945.938 1864.51 945.393 1867.34 945.381H1869.67V944.291C1869.67 943.412 1869.45 942.709 1868.99 942.182C1868.54 941.654 1867.83 941.391 1866.86 941.391C1866.01 941.391 1865.33 941.596 1864.84 942.006C1864.36 942.416 1864.12 942.979 1864.12 943.693H1859.04C1859.04 942.592 1859.38 941.572 1860.06 940.635C1860.74 939.697 1861.7 938.965 1862.94 938.438C1864.18 937.898 1865.58 937.629 1867.12 937.629C1869.47 937.629 1871.33 938.221 1872.7 939.404C1874.08 940.576 1874.77 942.229 1874.77 944.361V952.605C1874.78 954.41 1875.04 955.775 1875.53 956.701V957H1870.39ZM1866.19 953.467C1866.94 953.467 1867.63 953.303 1868.27 952.975C1868.9 952.635 1869.37 952.184 1869.67 951.621V948.352H1867.78C1865.23 948.352 1863.88 949.23 1863.71 950.988L1863.7 951.287C1863.7 951.92 1863.92 952.441 1864.37 952.852C1864.81 953.262 1865.42 953.467 1866.19 953.467ZM1883.44 937.98L1883.6 940.107C1884.94 938.455 1886.77 937.629 1889.06 937.629C1891.51 937.629 1893.19 938.596 1894.11 940.529C1895.44 938.596 1897.35 937.629 1899.82 937.629C1901.88 937.629 1903.42 938.232 1904.43 939.439C1905.43 940.635 1905.94 942.439 1905.94 944.854V957H1900.84V944.871C1900.84 943.793 1900.63 943.008 1900.21 942.516C1899.79 942.012 1899.04 941.76 1897.97 941.76C1896.45 941.76 1895.4 942.486 1894.81 943.939L1894.83 957H1889.75V944.889C1889.75 943.787 1889.53 942.99 1889.1 942.498C1888.66 942.006 1887.93 941.76 1886.88 941.76C1885.44 941.76 1884.4 942.357 1883.75 943.553V957H1878.67V937.98H1883.44ZM1909.07 947.314C1909.07 945.428 1909.43 943.746 1910.16 942.27C1910.88 940.793 1911.93 939.65 1913.29 938.842C1914.66 938.033 1916.24 937.629 1918.05 937.629C1920.62 937.629 1922.71 938.414 1924.32 939.984C1925.95 941.555 1926.86 943.688 1927.05 946.383L1927.08 947.684C1927.08 950.602 1926.27 952.945 1924.64 954.715C1923.01 956.473 1920.83 957.352 1918.08 957.352C1915.34 957.352 1913.15 956.473 1911.51 954.715C1909.88 952.957 1909.07 950.566 1909.07 947.543V947.314ZM1914.15 947.684C1914.15 949.488 1914.49 950.871 1915.17 951.832C1915.85 952.781 1916.82 953.256 1918.08 953.256C1919.31 953.256 1920.28 952.787 1920.97 951.85C1921.66 950.9 1922 949.389 1922 947.314C1922 945.545 1921.66 944.174 1920.97 943.201C1920.28 942.229 1919.3 941.742 1918.05 941.742C1916.81 941.742 1915.85 942.229 1915.17 943.201C1914.49 944.162 1914.15 945.656 1914.15 947.684ZM1941.6 955.066C1940.35 956.59 1938.62 957.352 1936.4 957.352C1934.36 957.352 1932.8 956.766 1931.72 955.594C1930.66 954.422 1930.11 952.705 1930.09 950.443V937.98H1935.17V950.268C1935.17 952.248 1936.07 953.238 1937.88 953.238C1939.6 953.238 1940.78 952.641 1941.43 951.445V937.98H1946.53V957H1941.74L1941.6 955.066ZM1955.03 937.98L1955.19 940.178C1956.55 938.479 1958.37 937.629 1960.66 937.629C1962.67 937.629 1964.17 938.221 1965.16 939.404C1966.14 940.588 1966.65 942.357 1966.67 944.713V957H1961.59V944.836C1961.59 943.758 1961.36 942.979 1960.89 942.498C1960.42 942.006 1959.64 941.76 1958.55 941.76C1957.12 941.76 1956.05 942.369 1955.33 943.588V957H1950.25V937.98H1955.03ZM1976.62 933.305V937.98H1979.87V941.707H1976.62V951.199C1976.62 951.902 1976.75 952.406 1977.02 952.711C1977.29 953.016 1977.81 953.168 1978.57 953.168C1979.13 953.168 1979.63 953.127 1980.06 953.045V956.895C1979.07 957.199 1978.04 957.352 1976.99 957.352C1973.43 957.352 1971.61 955.553 1971.54 951.955V941.707H1968.76V937.98H1971.54V933.305H1976.62Z" fill="#1875FF"/>
<path d="M360.176 931.406L366.75 949.969L373.289 931.406H380.215V957H374.924V950.004L375.451 937.928L368.543 957H364.922L358.031 937.945L358.559 950.004V957H353.285V931.406H360.176ZM383.695 947.314C383.695 945.428 384.059 943.746 384.785 942.27C385.512 940.793 386.555 939.65 387.914 938.842C389.285 938.033 390.873 937.629 392.678 937.629C395.244 937.629 397.336 938.414 398.953 939.984C400.582 941.555 401.49 943.688 401.678 946.383L401.713 947.684C401.713 950.602 400.898 952.945 399.27 954.715C397.641 956.473 395.455 957.352 392.713 957.352C389.971 957.352 387.779 956.473 386.139 954.715C384.51 952.957 383.695 950.566 383.695 947.543V947.314ZM388.775 947.684C388.775 949.488 389.115 950.871 389.795 951.832C390.475 952.781 391.447 953.256 392.713 953.256C393.943 953.256 394.904 952.787 395.596 951.85C396.287 950.9 396.633 949.389 396.633 947.314C396.633 945.545 396.287 944.174 395.596 943.201C394.904 942.229 393.932 941.742 392.678 941.742C391.436 941.742 390.475 942.229 389.795 943.201C389.115 944.162 388.775 945.656 388.775 947.684ZM409.518 937.98L409.676 940.178C411.035 938.479 412.857 937.629 415.143 937.629C417.158 937.629 418.658 938.221 419.643 939.404C420.627 940.588 421.131 942.357 421.154 944.713V957H416.074V944.836C416.074 943.758 415.84 942.979 415.371 942.498C414.902 942.006 414.123 941.76 413.033 941.76C411.604 941.76 410.531 942.369 409.816 943.588V957H404.736V937.98H409.518ZM431.104 933.305V937.98H434.355V941.707H431.104V951.199C431.104 951.902 431.238 952.406 431.508 952.711C431.777 953.016 432.293 953.168 433.055 953.168C433.617 953.168 434.115 953.127 434.549 953.045V956.895C433.553 957.199 432.527 957.352 431.473 957.352C427.91 957.352 426.094 955.553 426.023 951.955V941.707H423.246V937.98H426.023V933.305H431.104ZM442.143 940.055C443.49 938.438 445.184 937.629 447.223 937.629C451.348 937.629 453.439 940.025 453.498 944.818V957H448.418V944.959C448.418 943.869 448.184 943.066 447.715 942.551C447.246 942.023 446.467 941.76 445.377 941.76C443.889 941.76 442.811 942.334 442.143 943.482V957H437.062V930H442.143V940.055ZM462.691 957H457.594V930H462.691V957ZM473.994 949.811L477.51 937.98H482.959L475.312 959.953L474.891 960.955C473.754 963.439 471.879 964.682 469.266 964.682C468.527 964.682 467.777 964.57 467.016 964.348V960.498L467.789 960.516C468.75 960.516 469.465 960.369 469.934 960.076C470.414 959.783 470.789 959.297 471.059 958.617L471.656 957.053L464.994 937.98H470.461L473.994 949.811ZM499.289 957H494.191V937.98H499.289V957ZM493.893 933.059C493.893 932.297 494.145 931.67 494.648 931.178C495.164 930.686 495.861 930.439 496.74 930.439C497.607 930.439 498.299 930.686 498.814 931.178C499.33 931.67 499.588 932.297 499.588 933.059C499.588 933.832 499.324 934.465 498.797 934.957C498.281 935.449 497.596 935.695 496.74 935.695C495.885 935.695 495.193 935.449 494.666 934.957C494.15 934.465 493.893 933.832 493.893 933.059ZM508.166 937.98L508.324 940.178C509.684 938.479 511.506 937.629 513.791 937.629C515.807 937.629 517.307 938.221 518.291 939.404C519.275 940.588 519.779 942.357 519.803 944.713V957H514.723V944.836C514.723 943.758 514.488 942.979 514.02 942.498C513.551 942.006 512.771 941.76 511.682 941.76C510.252 941.76 509.18 942.369 508.465 943.588V957H503.385V937.98H508.166ZM531.58 953.256C532.518 953.256 533.279 952.998 533.865 952.482C534.451 951.967 534.756 951.281 534.779 950.426H539.543C539.531 951.715 539.18 952.898 538.488 953.977C537.797 955.043 536.848 955.875 535.641 956.473C534.445 957.059 533.121 957.352 531.668 957.352C528.949 957.352 526.805 956.49 525.234 954.768C523.664 953.033 522.879 950.643 522.879 947.596V947.262C522.879 944.332 523.658 941.994 525.217 940.248C526.775 938.502 528.914 937.629 531.633 937.629C534.012 937.629 535.916 938.309 537.346 939.668C538.787 941.016 539.52 942.814 539.543 945.064H534.779C534.756 944.08 534.451 943.283 533.865 942.674C533.279 942.053 532.506 941.742 531.545 941.742C530.361 941.742 529.465 942.176 528.855 943.043C528.258 943.898 527.959 945.293 527.959 947.227V947.754C527.959 949.711 528.258 951.117 528.855 951.973C529.453 952.828 530.361 953.256 531.58 953.256ZM541.652 947.314C541.652 945.428 542.016 943.746 542.742 942.27C543.469 940.793 544.512 939.65 545.871 938.842C547.242 938.033 548.83 937.629 550.635 937.629C553.201 937.629 555.293 938.414 556.91 939.984C558.539 941.555 559.447 943.688 559.635 946.383L559.67 947.684C559.67 950.602 558.855 952.945 557.227 954.715C555.598 956.473 553.412 957.352 550.67 957.352C547.928 957.352 545.736 956.473 544.096 954.715C542.467 952.957 541.652 950.566 541.652 947.543V947.314ZM546.732 947.684C546.732 949.488 547.072 950.871 547.752 951.832C548.432 952.781 549.404 953.256 550.67 953.256C551.9 953.256 552.861 952.787 553.553 951.85C554.244 950.9 554.59 949.389 554.59 947.314C554.59 945.545 554.244 944.174 553.553 943.201C552.861 942.229 551.889 941.742 550.635 941.742C549.393 941.742 548.432 942.229 547.752 943.201C547.072 944.162 546.732 945.656 546.732 947.684ZM567.562 937.98L567.721 940.107C569.068 938.455 570.891 937.629 573.188 937.629C575.637 937.629 577.318 938.596 578.232 940.529C579.568 938.596 581.473 937.629 583.945 937.629C586.008 937.629 587.543 938.232 588.551 939.439C589.559 940.635 590.062 942.439 590.062 944.854V957H584.965V944.871C584.965 943.793 584.754 943.008 584.332 942.516C583.91 942.012 583.166 941.76 582.1 941.76C580.576 941.76 579.521 942.486 578.936 943.939L578.953 957H573.873V944.889C573.873 943.787 573.656 942.99 573.223 942.498C572.789 942.006 572.051 941.76 571.008 941.76C569.566 941.76 568.523 942.357 567.879 943.553V957H562.799V937.98H567.562ZM602.736 957.352C599.947 957.352 597.674 956.496 595.916 954.785C594.17 953.074 593.297 950.795 593.297 947.947V947.455C593.297 945.545 593.666 943.84 594.404 942.34C595.143 940.828 596.186 939.668 597.533 938.859C598.893 938.039 600.439 937.629 602.174 937.629C604.775 937.629 606.82 938.449 608.309 940.09C609.809 941.73 610.559 944.057 610.559 947.068V949.143H598.447C598.611 950.385 599.104 951.381 599.924 952.131C600.756 952.881 601.805 953.256 603.07 953.256C605.027 953.256 606.557 952.547 607.658 951.129L610.154 953.924C609.393 955.002 608.361 955.846 607.061 956.455C605.76 957.053 604.318 957.352 602.736 957.352ZM602.156 941.742C601.148 941.742 600.328 942.082 599.695 942.762C599.074 943.441 598.676 944.414 598.5 945.68H605.566V945.275C605.543 944.15 605.238 943.283 604.652 942.674C604.066 942.053 603.234 941.742 602.156 941.742Z" fill="#3F90A1"/>
<path d="M769.176 931.406L775.75 949.969L782.289 931.406H789.215V957H783.924V950.004L784.451 937.928L777.543 957H773.922L767.031 937.945L767.559 950.004V957H762.285V931.406H769.176ZM792.695 947.314C792.695 945.428 793.059 943.746 793.785 942.27C794.512 940.793 795.555 939.65 796.914 938.842C798.285 938.033 799.873 937.629 801.678 937.629C804.244 937.629 806.336 938.414 807.953 939.984C809.582 941.555 810.49 943.688 810.678 946.383L810.713 947.684C810.713 950.602 809.898 952.945 808.27 954.715C806.641 956.473 804.455 957.352 801.713 957.352C798.971 957.352 796.779 956.473 795.139 954.715C793.51 952.957 792.695 950.566 792.695 947.543V947.314ZM797.775 947.684C797.775 949.488 798.115 950.871 798.795 951.832C799.475 952.781 800.447 953.256 801.713 953.256C802.943 953.256 803.904 952.787 804.596 951.85C805.287 950.9 805.633 949.389 805.633 947.314C805.633 945.545 805.287 944.174 804.596 943.201C803.904 942.229 802.932 941.742 801.678 941.742C800.436 941.742 799.475 942.229 798.795 943.201C798.115 944.162 797.775 945.656 797.775 947.684ZM818.518 937.98L818.676 940.178C820.035 938.479 821.857 937.629 824.143 937.629C826.158 937.629 827.658 938.221 828.643 939.404C829.627 940.588 830.131 942.357 830.154 944.713V957H825.074V944.836C825.074 943.758 824.84 942.979 824.371 942.498C823.902 942.006 823.123 941.76 822.033 941.76C820.604 941.76 819.531 942.369 818.816 943.588V957H813.736V937.98H818.518ZM840.104 933.305V937.98H843.355V941.707H840.104V951.199C840.104 951.902 840.238 952.406 840.508 952.711C840.777 953.016 841.293 953.168 842.055 953.168C842.617 953.168 843.115 953.127 843.549 953.045V956.895C842.553 957.199 841.527 957.352 840.473 957.352C836.91 957.352 835.094 955.553 835.023 951.955V941.707H832.246V937.98H835.023V933.305H840.104ZM851.143 940.055C852.49 938.438 854.184 937.629 856.223 937.629C860.348 937.629 862.439 940.025 862.498 944.818V957H857.418V944.959C857.418 943.869 857.184 943.066 856.715 942.551C856.246 942.023 855.467 941.76 854.377 941.76C852.889 941.76 851.811 942.334 851.143 943.482V957H846.062V930H851.143V940.055ZM871.691 957H866.594V930H871.691V957ZM882.994 949.811L886.51 937.98H891.959L884.312 959.953L883.891 960.955C882.754 963.439 880.879 964.682 878.266 964.682C877.527 964.682 876.777 964.57 876.016 964.348V960.498L876.789 960.516C877.75 960.516 878.465 960.369 878.934 960.076C879.414 959.783 879.789 959.297 880.059 958.617L880.656 957.053L873.994 937.98H879.461L882.994 949.811ZM908.289 957H903.191V937.98H908.289V957ZM902.893 933.059C902.893 932.297 903.145 931.67 903.648 931.178C904.164 930.686 904.861 930.439 905.74 930.439C906.607 930.439 907.299 930.686 907.814 931.178C908.33 931.67 908.588 932.297 908.588 933.059C908.588 933.832 908.324 934.465 907.797 934.957C907.281 935.449 906.596 935.695 905.74 935.695C904.885 935.695 904.193 935.449 903.666 934.957C903.15 934.465 902.893 933.832 902.893 933.059ZM917.166 937.98L917.324 940.178C918.684 938.479 920.506 937.629 922.791 937.629C924.807 937.629 926.307 938.221 927.291 939.404C928.275 940.588 928.779 942.357 928.803 944.713V957H923.723V944.836C923.723 943.758 923.488 942.979 923.02 942.498C922.551 942.006 921.771 941.76 920.682 941.76C919.252 941.76 918.18 942.369 917.465 943.588V957H912.385V937.98H917.166ZM940.58 953.256C941.518 953.256 942.279 952.998 942.865 952.482C943.451 951.967 943.756 951.281 943.779 950.426H948.543C948.531 951.715 948.18 952.898 947.488 953.977C946.797 955.043 945.848 955.875 944.641 956.473C943.445 957.059 942.121 957.352 940.668 957.352C937.949 957.352 935.805 956.49 934.234 954.768C932.664 953.033 931.879 950.643 931.879 947.596V947.262C931.879 944.332 932.658 941.994 934.217 940.248C935.775 938.502 937.914 937.629 940.633 937.629C943.012 937.629 944.916 938.309 946.346 939.668C947.787 941.016 948.52 942.814 948.543 945.064H943.779C943.756 944.08 943.451 943.283 942.865 942.674C942.279 942.053 941.506 941.742 940.545 941.742C939.361 941.742 938.465 942.176 937.855 943.043C937.258 943.898 936.959 945.293 936.959 947.227V947.754C936.959 949.711 937.258 951.117 937.855 951.973C938.453 952.828 939.361 953.256 940.58 953.256ZM950.652 947.314C950.652 945.428 951.016 943.746 951.742 942.27C952.469 940.793 953.512 939.65 954.871 938.842C956.242 938.033 957.83 937.629 959.635 937.629C962.201 937.629 964.293 938.414 965.91 939.984C967.539 941.555 968.447 943.688 968.635 946.383L968.67 947.684C968.67 950.602 967.855 952.945 966.227 954.715C964.598 956.473 962.412 957.352 959.67 957.352C956.928 957.352 954.736 956.473 953.096 954.715C951.467 952.957 950.652 950.566 950.652 947.543V947.314ZM955.732 947.684C955.732 949.488 956.072 950.871 956.752 951.832C957.432 952.781 958.404 953.256 959.67 953.256C960.9 953.256 961.861 952.787 962.553 951.85C963.244 950.9 963.59 949.389 963.59 947.314C963.59 945.545 963.244 944.174 962.553 943.201C961.861 942.229 960.889 941.742 959.635 941.742C958.393 941.742 957.432 942.229 956.752 943.201C956.072 944.162 955.732 945.656 955.732 947.684ZM976.562 937.98L976.721 940.107C978.068 938.455 979.891 937.629 982.188 937.629C984.637 937.629 986.318 938.596 987.232 940.529C988.568 938.596 990.473 937.629 992.945 937.629C995.008 937.629 996.543 938.232 997.551 939.439C998.559 940.635 999.062 942.439 999.062 944.854V957H993.965V944.871C993.965 943.793 993.754 943.008 993.332 942.516C992.91 942.012 992.166 941.76 991.1 941.76C989.576 941.76 988.521 942.486 987.936 943.939L987.953 957H982.873V944.889C982.873 943.787 982.656 942.99 982.223 942.498C981.789 942.006 981.051 941.76 980.008 941.76C978.566 941.76 977.523 942.357 976.879 943.553V957H971.799V937.98H976.562ZM1011.74 957.352C1008.95 957.352 1006.67 956.496 1004.92 954.785C1003.17 953.074 1002.3 950.795 1002.3 947.947V947.455C1002.3 945.545 1002.67 943.84 1003.4 942.34C1004.14 940.828 1005.19 939.668 1006.53 938.859C1007.89 938.039 1009.44 937.629 1011.17 937.629C1013.78 937.629 1015.82 938.449 1017.31 940.09C1018.81 941.73 1019.56 944.057 1019.56 947.068V949.143H1007.45C1007.61 950.385 1008.1 951.381 1008.92 952.131C1009.76 952.881 1010.8 953.256 1012.07 953.256C1014.03 953.256 1015.56 952.547 1016.66 951.129L1019.15 953.924C1018.39 955.002 1017.36 955.846 1016.06 956.455C1014.76 957.053 1013.32 957.352 1011.74 957.352ZM1011.16 941.742C1010.15 941.742 1009.33 942.082 1008.7 942.762C1008.07 943.441 1007.68 944.414 1007.5 945.68H1014.57V945.275C1014.54 944.15 1014.24 943.283 1013.65 942.674C1013.07 942.053 1012.23 941.742 1011.16 941.742ZM1036.19 937.98L1036.35 940.107C1037.69 938.455 1039.52 937.629 1041.81 937.629C1044.26 937.629 1045.94 938.596 1046.86 940.529C1048.19 938.596 1050.1 937.629 1052.57 937.629C1054.63 937.629 1056.17 938.232 1057.18 939.439C1058.18 940.635 1058.69 942.439 1058.69 944.854V957H1053.59V944.871C1053.59 943.793 1053.38 943.008 1052.96 942.516C1052.54 942.012 1051.79 941.76 1050.72 941.76C1049.2 941.76 1048.15 942.486 1047.56 943.939L1047.58 957H1042.5V944.889C1042.5 943.787 1042.28 942.99 1041.85 942.498C1041.41 942.006 1040.68 941.76 1039.63 941.76C1038.19 941.76 1037.15 942.357 1036.5 943.553V957H1031.42V937.98H1036.19ZM1067.97 957H1062.87V937.98H1067.97V957ZM1062.57 933.059C1062.57 932.297 1062.82 931.67 1063.33 931.178C1063.84 930.686 1064.54 930.439 1065.42 930.439C1066.29 930.439 1066.98 930.686 1067.49 931.178C1068.01 931.67 1068.27 932.297 1068.27 933.059C1068.27 933.832 1068 934.465 1067.48 934.957C1066.96 935.449 1066.28 935.695 1065.42 935.695C1064.56 935.695 1063.87 935.449 1063.35 934.957C1062.83 934.465 1062.57 933.832 1062.57 933.059ZM1076.85 937.98L1077 940.178C1078.36 938.479 1080.19 937.629 1082.47 937.629C1084.49 937.629 1085.99 938.221 1086.97 939.404C1087.96 940.588 1088.46 942.357 1088.48 944.713V957H1083.4V944.836C1083.4 943.758 1083.17 942.979 1082.7 942.498C1082.23 942.006 1081.45 941.76 1080.36 941.76C1078.93 941.76 1077.86 942.369 1077.14 943.588V957H1072.06V937.98H1076.85ZM1103.74 955.066C1102.49 956.59 1100.75 957.352 1098.54 957.352C1096.5 957.352 1094.94 956.766 1093.86 955.594C1092.79 954.422 1092.25 952.705 1092.23 950.443V937.98H1097.31V950.268C1097.31 952.248 1098.21 953.238 1100.01 953.238C1101.74 953.238 1102.92 952.641 1103.56 951.445V937.98H1108.66V957H1103.88L1103.74 955.066ZM1122.79 951.744C1122.79 951.123 1122.48 950.637 1121.86 950.285C1121.25 949.922 1120.27 949.6 1118.91 949.318C1114.39 948.369 1112.12 946.447 1112.12 943.553C1112.12 941.865 1112.82 940.459 1114.22 939.334C1115.62 938.197 1117.46 937.629 1119.72 937.629C1122.13 937.629 1124.06 938.197 1125.5 939.334C1126.96 940.471 1127.68 941.947 1127.68 943.764H1122.6C1122.6 943.037 1122.37 942.439 1121.9 941.971C1121.43 941.49 1120.7 941.25 1119.7 941.25C1118.85 941.25 1118.18 941.443 1117.71 941.83C1117.25 942.217 1117.01 942.709 1117.01 943.307C1117.01 943.869 1117.28 944.326 1117.8 944.678C1118.34 945.018 1119.24 945.316 1120.51 945.574C1121.78 945.82 1122.84 946.102 1123.71 946.418C1126.39 947.402 1127.73 949.107 1127.73 951.533C1127.73 953.268 1126.99 954.674 1125.5 955.752C1124.01 956.818 1122.09 957.352 1119.74 957.352C1118.14 957.352 1116.72 957.07 1115.48 956.508C1114.25 955.934 1113.29 955.154 1112.58 954.17C1111.88 953.174 1111.53 952.102 1111.53 950.953H1116.34C1116.39 951.855 1116.72 952.547 1117.35 953.027C1117.97 953.508 1118.8 953.748 1119.84 953.748C1120.81 953.748 1121.55 953.566 1122.04 953.203C1122.54 952.828 1122.79 952.342 1122.79 951.744ZM1150.67 942.744C1149.98 942.65 1149.37 942.604 1148.85 942.604C1146.92 942.604 1145.66 943.254 1145.07 944.555V957H1139.99V937.98H1144.79L1144.93 940.248C1145.95 938.502 1147.36 937.629 1149.16 937.629C1149.72 937.629 1150.25 937.705 1150.74 937.857L1150.67 942.744ZM1161.54 957.352C1158.75 957.352 1156.47 956.496 1154.72 954.785C1152.97 953.074 1152.1 950.795 1152.1 947.947V947.455C1152.1 945.545 1152.47 943.84 1153.21 942.34C1153.94 940.828 1154.99 939.668 1156.33 938.859C1157.69 938.039 1159.24 937.629 1160.97 937.629C1163.58 937.629 1165.62 938.449 1167.11 940.09C1168.61 941.73 1169.36 944.057 1169.36 947.068V949.143H1157.25C1157.41 950.385 1157.9 951.381 1158.72 952.131C1159.56 952.881 1160.61 953.256 1161.87 953.256C1163.83 953.256 1165.36 952.547 1166.46 951.129L1168.96 953.924C1168.19 955.002 1167.16 955.846 1165.86 956.455C1164.56 957.053 1163.12 957.352 1161.54 957.352ZM1160.96 941.742C1159.95 941.742 1159.13 942.082 1158.5 942.762C1157.88 943.441 1157.48 944.414 1157.3 945.68H1164.37V945.275C1164.34 944.15 1164.04 943.283 1163.45 942.674C1162.87 942.053 1162.04 941.742 1160.96 941.742ZM1171.47 947.314C1171.47 945.428 1171.83 943.746 1172.56 942.27C1173.29 940.793 1174.33 939.65 1175.69 938.842C1177.06 938.033 1178.65 937.629 1180.45 937.629C1183.02 937.629 1185.11 938.414 1186.73 939.984C1188.36 941.555 1189.26 943.688 1189.45 946.383L1189.49 947.684C1189.49 950.602 1188.67 952.945 1187.04 954.715C1185.41 956.473 1183.23 957.352 1180.49 957.352C1177.74 957.352 1175.55 956.473 1173.91 954.715C1172.28 952.957 1171.47 950.566 1171.47 947.543V947.314ZM1176.55 947.684C1176.55 949.488 1176.89 950.871 1177.57 951.832C1178.25 952.781 1179.22 953.256 1180.49 953.256C1181.72 953.256 1182.68 952.787 1183.37 951.85C1184.06 950.9 1184.41 949.389 1184.41 947.314C1184.41 945.545 1184.06 944.174 1183.37 943.201C1182.68 942.229 1181.71 941.742 1180.45 941.742C1179.21 941.742 1178.25 942.229 1177.57 943.201C1176.89 944.162 1176.55 945.656 1176.55 947.684ZM1200.53 953.256C1201.46 953.256 1202.22 952.998 1202.81 952.482C1203.4 951.967 1203.7 951.281 1203.72 950.426H1208.49C1208.48 951.715 1208.12 952.898 1207.43 953.977C1206.74 955.043 1205.79 955.875 1204.59 956.473C1203.39 957.059 1202.07 957.352 1200.61 957.352C1197.89 957.352 1195.75 956.49 1194.18 954.768C1192.61 953.033 1191.82 950.643 1191.82 947.596V947.262C1191.82 944.332 1192.6 941.994 1194.16 940.248C1195.72 938.502 1197.86 937.629 1200.58 937.629C1202.96 937.629 1204.86 938.309 1206.29 939.668C1207.73 941.016 1208.46 942.814 1208.49 945.064H1203.72C1203.7 944.08 1203.4 943.283 1202.81 942.674C1202.22 942.053 1201.45 941.742 1200.49 941.742C1199.31 941.742 1198.41 942.176 1197.8 943.043C1197.2 943.898 1196.9 945.293 1196.9 947.227V947.754C1196.9 949.711 1197.2 951.117 1197.8 951.973C1198.4 952.828 1199.31 953.256 1200.53 953.256ZM1219.3 953.256C1220.24 953.256 1221 952.998 1221.58 952.482C1222.17 951.967 1222.47 951.281 1222.5 950.426H1227.26C1227.25 951.715 1226.9 952.898 1226.21 953.977C1225.52 955.043 1224.57 955.875 1223.36 956.473C1222.16 957.059 1220.84 957.352 1219.39 957.352C1216.67 957.352 1214.52 956.49 1212.95 954.768C1211.38 953.033 1210.6 950.643 1210.6 947.596V947.262C1210.6 944.332 1211.38 941.994 1212.94 940.248C1214.49 938.502 1216.63 937.629 1219.35 937.629C1221.73 937.629 1223.63 938.309 1225.06 939.668C1226.51 941.016 1227.24 942.814 1227.26 945.064H1222.5C1222.47 944.08 1222.17 943.283 1221.58 942.674C1221 942.053 1220.22 941.742 1219.26 941.742C1218.08 941.742 1217.18 942.176 1216.57 943.043C1215.98 943.898 1215.68 945.293 1215.68 947.227V947.754C1215.68 949.711 1215.98 951.117 1216.57 951.973C1217.17 952.828 1218.08 953.256 1219.3 953.256ZM1241.55 955.066C1240.3 956.59 1238.56 957.352 1236.35 957.352C1234.31 957.352 1232.75 956.766 1231.67 955.594C1230.61 954.422 1230.06 952.705 1230.04 950.443V937.98H1235.12V950.268C1235.12 952.248 1236.02 953.238 1237.83 953.238C1239.55 953.238 1240.73 952.641 1241.38 951.445V937.98H1246.47V957H1241.69L1241.55 955.066ZM1260.99 942.744C1260.3 942.65 1259.69 942.604 1259.17 942.604C1257.24 942.604 1255.98 943.254 1255.39 944.555V957H1250.31V937.98H1255.11L1255.25 940.248C1256.27 938.502 1257.68 937.629 1259.48 937.629C1260.04 937.629 1260.57 937.705 1261.06 937.857L1260.99 942.744ZM1268.82 957H1263.72V937.98H1268.82V957ZM1263.42 933.059C1263.42 932.297 1263.67 931.67 1264.18 931.178C1264.69 930.686 1265.39 930.439 1266.27 930.439C1267.13 930.439 1267.83 930.686 1268.34 931.178C1268.86 931.67 1269.12 932.297 1269.12 933.059C1269.12 933.832 1268.85 934.465 1268.32 934.957C1267.81 935.449 1267.12 935.695 1266.27 935.695C1265.41 935.695 1264.72 935.449 1264.19 934.957C1263.68 934.465 1263.42 933.832 1263.42 933.059ZM1277.69 937.98L1277.85 940.178C1279.21 938.479 1281.03 937.629 1283.32 937.629C1285.33 937.629 1286.83 938.221 1287.82 939.404C1288.8 940.588 1289.31 942.357 1289.33 944.713V957H1284.25V944.836C1284.25 943.758 1284.02 942.979 1283.55 942.498C1283.08 942.006 1282.3 941.76 1281.21 941.76C1279.78 941.76 1278.71 942.369 1277.99 943.588V957H1272.91V937.98H1277.69ZM1292.46 947.35C1292.46 944.432 1293.15 942.082 1294.53 940.301C1295.93 938.52 1297.8 937.629 1300.16 937.629C1302.24 937.629 1303.87 938.344 1305.03 939.773L1305.24 937.98H1309.84V956.367C1309.84 958.031 1309.46 959.479 1308.7 960.709C1307.95 961.939 1306.89 962.877 1305.52 963.521C1304.15 964.166 1302.54 964.488 1300.7 964.488C1299.31 964.488 1297.95 964.207 1296.62 963.645C1295.3 963.094 1294.3 962.379 1293.62 961.5L1295.87 958.406C1297.13 959.824 1298.67 960.533 1300.47 960.533C1301.82 960.533 1302.87 960.17 1303.62 959.443C1304.37 958.729 1304.75 957.709 1304.75 956.385V955.365C1303.57 956.689 1302.03 957.352 1300.12 957.352C1297.84 957.352 1295.99 956.461 1294.57 954.68C1293.16 952.887 1292.46 950.514 1292.46 947.561V947.35ZM1297.54 947.719C1297.54 949.441 1297.88 950.795 1298.58 951.779C1299.27 952.752 1300.22 953.238 1301.42 953.238C1302.97 953.238 1304.08 952.658 1304.75 951.498V943.5C1304.07 942.34 1302.97 941.76 1301.46 941.76C1300.24 941.76 1299.28 942.258 1298.58 943.254C1297.88 944.25 1297.54 945.738 1297.54 947.719ZM1331.48 957.352C1328.69 957.352 1326.42 956.496 1324.66 954.785C1322.92 953.074 1322.04 950.795 1322.04 947.947V947.455C1322.04 945.545 1322.41 943.84 1323.15 942.34C1323.89 940.828 1324.93 939.668 1326.28 938.859C1327.64 938.039 1329.19 937.629 1330.92 937.629C1333.52 937.629 1335.57 938.449 1337.05 940.09C1338.55 941.73 1339.3 944.057 1339.3 947.068V949.143H1327.19C1327.36 950.385 1327.85 951.381 1328.67 952.131C1329.5 952.881 1330.55 953.256 1331.82 953.256C1333.77 953.256 1335.3 952.547 1336.4 951.129L1338.9 953.924C1338.14 955.002 1337.11 955.846 1335.81 956.455C1334.51 957.053 1333.06 957.352 1331.48 957.352ZM1330.9 941.742C1329.89 941.742 1329.07 942.082 1328.44 942.762C1327.82 943.441 1327.42 944.414 1327.25 945.68H1334.31V945.275C1334.29 944.15 1333.98 943.283 1333.4 942.674C1332.81 942.053 1331.98 941.742 1330.9 941.742ZM1349.45 943.658L1352.65 937.98H1358.08L1352.66 947.297L1358.31 957H1352.86L1349.46 951.023L1346.09 957H1340.62L1346.27 947.297L1340.87 937.98H1346.32L1349.45 943.658ZM1377.64 947.666C1377.64 950.596 1376.97 952.945 1375.64 954.715C1374.31 956.473 1372.52 957.352 1370.26 957.352C1368.34 957.352 1366.79 956.684 1365.6 955.348V964.312H1360.52V937.98H1365.23L1365.41 939.844C1366.64 938.367 1368.24 937.629 1370.22 937.629C1372.57 937.629 1374.39 938.496 1375.69 940.23C1376.99 941.965 1377.64 944.355 1377.64 947.402V947.666ZM1372.56 947.297C1372.56 945.527 1372.25 944.162 1371.61 943.201C1370.99 942.24 1370.08 941.76 1368.89 941.76C1367.29 941.76 1366.2 942.369 1365.6 943.588V951.375C1366.22 952.629 1367.33 953.256 1368.92 953.256C1371.35 953.256 1372.56 951.27 1372.56 947.297ZM1389.56 957.352C1386.77 957.352 1384.5 956.496 1382.74 954.785C1380.99 953.074 1380.12 950.795 1380.12 947.947V947.455C1380.12 945.545 1380.49 943.84 1381.23 942.34C1381.97 940.828 1383.01 939.668 1384.36 938.859C1385.72 938.039 1387.26 937.629 1389 937.629C1391.6 937.629 1393.64 938.449 1395.13 940.09C1396.63 941.73 1397.38 944.057 1397.38 947.068V949.143H1385.27C1385.44 950.385 1385.93 951.381 1386.75 952.131C1387.58 952.881 1388.63 953.256 1389.89 953.256C1391.85 953.256 1393.38 952.547 1394.48 951.129L1396.98 953.924C1396.22 955.002 1395.19 955.846 1393.88 956.455C1392.58 957.053 1391.14 957.352 1389.56 957.352ZM1388.98 941.742C1387.97 941.742 1387.15 942.082 1386.52 942.762C1385.9 943.441 1385.5 944.414 1385.32 945.68H1392.39V945.275C1392.37 944.15 1392.06 943.283 1391.48 942.674C1390.89 942.053 1390.06 941.742 1388.98 941.742ZM1404.96 937.98L1405.12 940.178C1406.48 938.479 1408.3 937.629 1410.58 937.629C1412.6 937.629 1414.1 938.221 1415.08 939.404C1416.07 940.588 1416.57 942.357 1416.6 944.713V957H1411.52V944.836C1411.52 943.758 1411.28 942.979 1410.81 942.498C1410.34 942.006 1409.56 941.76 1408.47 941.76C1407.04 941.76 1405.97 942.369 1405.26 943.588V957H1400.18V937.98H1404.96ZM1430.76 951.744C1430.76 951.123 1430.45 950.637 1429.83 950.285C1429.22 949.922 1428.24 949.6 1426.88 949.318C1422.36 948.369 1420.09 946.447 1420.09 943.553C1420.09 941.865 1420.79 940.459 1422.19 939.334C1423.59 938.197 1425.43 937.629 1427.69 937.629C1430.1 937.629 1432.03 938.197 1433.47 939.334C1434.92 940.471 1435.65 941.947 1435.65 943.764H1430.57C1430.57 943.037 1430.34 942.439 1429.87 941.971C1429.4 941.49 1428.67 941.25 1427.67 941.25C1426.81 941.25 1426.15 941.443 1425.68 941.83C1425.21 942.217 1424.98 942.709 1424.98 943.307C1424.98 943.869 1425.24 944.326 1425.77 944.678C1426.31 945.018 1427.21 945.316 1428.48 945.574C1429.74 945.82 1430.81 946.102 1431.68 946.418C1434.36 947.402 1435.7 949.107 1435.7 951.533C1435.7 953.268 1434.96 954.674 1433.47 955.752C1431.98 956.818 1430.06 957.352 1427.71 957.352C1426.11 957.352 1424.69 957.07 1423.45 956.508C1422.22 955.934 1421.25 955.154 1420.55 954.17C1419.85 953.174 1419.5 952.102 1419.5 950.953H1424.31C1424.36 951.855 1424.69 952.547 1425.31 953.027C1425.94 953.508 1426.77 953.748 1427.81 953.748C1428.78 953.748 1429.52 953.566 1430.01 953.203C1430.51 952.828 1430.76 952.342 1430.76 951.744ZM1447.74 957.352C1444.96 957.352 1442.68 956.496 1440.92 954.785C1439.18 953.074 1438.3 950.795 1438.3 947.947V947.455C1438.3 945.545 1438.67 943.84 1439.41 942.34C1440.15 940.828 1441.19 939.668 1442.54 938.859C1443.9 938.039 1445.45 937.629 1447.18 937.629C1449.78 937.629 1451.83 938.449 1453.32 940.09C1454.82 941.73 1455.57 944.057 1455.57 947.068V949.143H1443.46C1443.62 950.385 1444.11 951.381 1444.93 952.131C1445.76 952.881 1446.81 953.256 1448.08 953.256C1450.04 953.256 1451.56 952.547 1452.67 951.129L1455.16 953.924C1454.4 955.002 1453.37 955.846 1452.07 956.455C1450.77 957.053 1449.33 957.352 1447.74 957.352ZM1447.16 941.742C1446.16 941.742 1445.34 942.082 1444.7 942.762C1444.08 943.441 1443.68 944.414 1443.51 945.68H1450.57V945.275C1450.55 944.15 1450.25 943.283 1449.66 942.674C1449.07 942.053 1448.24 941.742 1447.16 941.742ZM1468.77 951.744C1468.77 951.123 1468.46 950.637 1467.84 950.285C1467.23 949.922 1466.24 949.6 1464.88 949.318C1460.36 948.369 1458.1 946.447 1458.1 943.553C1458.1 941.865 1458.79 940.459 1460.19 939.334C1461.6 938.197 1463.43 937.629 1465.69 937.629C1468.11 937.629 1470.03 938.197 1471.47 939.334C1472.93 940.471 1473.65 941.947 1473.65 943.764H1468.57C1468.57 943.037 1468.34 942.439 1467.87 941.971C1467.4 941.49 1466.67 941.25 1465.67 941.25C1464.82 941.25 1464.16 941.443 1463.69 941.83C1463.22 942.217 1462.98 942.709 1462.98 943.307C1462.98 943.869 1463.25 944.326 1463.78 944.678C1464.31 945.018 1465.22 945.316 1466.48 945.574C1467.75 945.82 1468.81 946.102 1469.68 946.418C1472.37 947.402 1473.71 949.107 1473.71 951.533C1473.71 953.268 1472.96 954.674 1471.47 955.752C1469.99 956.818 1468.06 957.352 1465.71 957.352C1464.12 957.352 1462.7 957.07 1461.46 956.508C1460.22 955.934 1459.26 955.154 1458.55 954.17C1457.85 953.174 1457.5 952.102 1457.5 950.953H1462.32C1462.36 951.855 1462.7 952.547 1463.32 953.027C1463.94 953.508 1464.77 953.748 1465.81 953.748C1466.79 953.748 1467.52 953.566 1468.01 953.203C1468.52 952.828 1468.77 952.342 1468.77 951.744Z" fill="#18D914"/>
<path d="M9.91406 642.875L10.0195 645.318C10.0195 646.76 9.65625 647.908 8.92969 648.764H20.4082V653H1.79297V648.764H3.41016C4.25391 648.553 4.67578 647.504 4.67578 645.617L4.58789 642.875H1.74023V638.727H4.44727L4.32422 634.736C4.32422 632.369 5.04492 630.5 6.48633 629.129C7.93945 627.758 9.87891 627.072 12.3047 627.072C14.7891 627.072 16.7402 627.734 18.1582 629.059C19.5762 630.371 20.2852 632.152 20.2852 634.402H15.2402C15.2402 633.406 14.9824 632.645 14.4668 632.117C13.9629 631.59 13.2363 631.326 12.2871 631.326C11.5137 631.326 10.8691 631.613 10.3535 632.188C9.84961 632.762 9.59766 633.611 9.59766 634.736L9.75586 638.727H15.1875V642.875H9.91406ZM27.4043 636.09L21.8848 634.525L22.9219 631.344L28.3887 633.541L28.0371 627.406H31.4824L31.1309 633.664L36.457 631.502L37.4941 634.719L31.8691 636.283L35.5605 640.959L32.7656 642.945L29.5664 637.812L26.4023 642.77L23.6074 640.871L27.4043 636.09ZM49.166 636.23L53.9648 627.406H60.0293L52.5762 640.098L60.2227 653H54.0879L49.166 644.035L44.2441 653H38.1094L45.7559 640.098L38.3027 627.406H44.3672L49.166 636.23ZM71.7188 638.938L77.0449 627.406H82.8105L74.4082 643.719V653H69.0469V643.719L60.6445 627.406H66.4277L71.7188 638.938ZM90.7383 648.764H103.641V653H84.1465V649.906L96.8027 631.678H84.1641V627.406H103.359V630.43L90.7383 648.764ZM126.914 645.617L130.359 627.406H135.615L129.938 653H124.629L120.463 635.879L116.297 653H110.988L105.311 627.406H110.566L114.029 645.582L118.248 627.406H122.713L126.914 645.617ZM142.189 636.09L136.67 634.525L137.707 631.344L143.174 633.541L142.822 627.406H146.268L145.916 633.664L151.242 631.502L152.279 634.719L146.654 636.283L150.346 640.959L147.551 642.945L144.352 637.812L141.188 642.77L138.393 640.871L142.189 636.09Z" fill="#1875FF"/>
<path d="M134.893 22.0664L135.033 25.9336C135.033 27.7383 134.67 29.1738 133.943 30.2402H146.828L146.811 33H128.67V30.2402H130.023C130.492 30.1348 130.873 29.7012 131.166 28.9395C131.459 28.166 131.617 27.2168 131.641 26.0918V25.9512L131.5 22.0664H128.6V19.3066H131.412L131.254 14.7363C131.254 12.4043 131.969 10.541 133.398 9.14648C134.84 7.75195 136.732 7.05469 139.076 7.05469C141.303 7.05469 143.066 7.67578 144.367 8.91797C145.668 10.1602 146.318 11.8184 146.318 13.8926H142.961C142.961 12.6387 142.586 11.6484 141.836 10.9219C141.098 10.1953 140.078 9.83203 138.777 9.83203C137.547 9.83203 136.551 10.2832 135.789 11.1855C135.027 12.0879 134.646 13.2715 134.646 14.7363L134.805 19.3066H140.412V22.0664H134.893ZM165.021 26.3203H154.299L151.891 33H148.41L158.184 7.40625H161.137L170.928 33H167.465L165.021 26.3203ZM155.318 23.543H164.02L159.66 11.5723L155.318 23.543ZM178.732 7.40625L187.1 28.2891L195.467 7.40625H199.844V33H196.469V23.0332L196.785 12.2754L188.383 33H185.799L177.414 12.3281L177.748 23.0332V33H174.373V7.40625H178.732ZM225.49 21.0293C225.49 23.5371 225.068 25.7285 224.225 27.6035C223.381 29.4668 222.186 30.8906 220.639 31.875C219.092 32.8594 217.287 33.3516 215.225 33.3516C213.209 33.3516 211.422 32.8594 209.863 31.875C208.305 30.8789 207.092 29.4668 206.225 27.6387C205.369 25.7988 204.93 23.6719 204.906 21.2578V19.4121C204.906 16.9512 205.334 14.7773 206.189 12.8906C207.045 11.0039 208.252 9.5625 209.811 8.56641C211.381 7.55859 213.174 7.05469 215.189 7.05469C217.24 7.05469 219.045 7.55273 220.604 8.54883C222.174 9.5332 223.381 10.9688 224.225 12.8555C225.068 14.7305 225.49 16.916 225.49 19.4121V21.0293ZM222.133 19.377C222.133 16.3418 221.523 14.0156 220.305 12.3984C219.086 10.7695 217.381 9.95508 215.189 9.95508C213.057 9.95508 211.375 10.7695 210.145 12.3984C208.926 14.0156 208.299 16.2656 208.264 19.1484V21.0293C208.264 23.9707 208.879 26.2852 210.109 27.9727C211.352 29.6484 213.057 30.4863 215.225 30.4863C217.404 30.4863 219.092 29.6953 220.287 28.1133C221.482 26.5195 222.098 24.2402 222.133 21.2754V19.377ZM248.57 7.40625V24.8086C248.559 27.2227 247.797 29.1973 246.285 30.7324C244.785 32.2676 242.746 33.1289 240.168 33.3164L239.271 33.3516C236.471 33.3516 234.238 32.5957 232.574 31.084C230.91 29.5723 230.066 27.4922 230.043 24.8438V7.40625H233.383V24.7383C233.383 26.5898 233.893 28.0312 234.912 29.0625C235.932 30.082 237.385 30.5918 239.271 30.5918C241.182 30.5918 242.641 30.082 243.648 29.0625C244.668 28.043 245.178 26.6074 245.178 24.7559V7.40625H248.57ZM273.566 33H270.174L257.289 13.2773V33H253.896V7.40625H257.289L270.209 27.2168V7.40625H273.566V33ZM296.717 10.1836H288.49V33H285.133V10.1836H276.924V7.40625H296.717V10.1836Z" fill="#C7BCC5"/>
<path d="M2146.65 792.184H2138.43V815H2135.07V792.184H2126.86V789.406H2146.65V792.184ZM2154.07 815H2150.7V789.406H2154.07V815ZM2164.62 789.406L2172.99 810.289L2181.35 789.406H2185.73V815H2182.36V805.033L2182.67 794.275L2174.27 815H2171.69L2163.3 794.328L2163.63 805.033V815H2160.26V789.406H2164.62ZM2206.16 803.17H2195.06V812.24H2207.95V815H2191.69V789.406H2207.77V792.184H2195.06V800.41H2206.16V803.17Z" fill="#C7BCC5"/>
<path d="M242 800V197H317V800H242Z" fill="#3F90A2" stroke="#3F90A2" stroke-width="6"/>
<path d="M242 800V271H317V800H242Z" fill="#18D914" stroke="#18D914" stroke-width="6"/>
<path d="M1185 800V197H1260V800H1185Z" fill="#3F90A2" stroke="#3F90A2" stroke-width="6"/>
<path d="M1185 800V271H1260V800H1185Z" fill="#18D914" stroke="#18D914" stroke-width="6"/>
<path d="M399 800V264H474V800H399Z" fill="#3F90A2" stroke="#3F90A2" stroke-width="6"/>
<path d="M399 800V329.859H474V800H399Z" fill="#18D914" stroke="#18D914" stroke-width="6"/>
<path d="M1342 800V264H1417V800H1342Z" fill="#3F90A2" stroke="#3F90A2" stroke-width="6"/>
<path d="M1342 800V329.859H1417V800H1342Z" fill="#18D914" stroke="#18D914" stroke-width="6"/>
<path d="M559 800V229H634V800H559Z" fill="#3F90A2" stroke="#3F90A2" stroke-width="6"/>
<path d="M559 800V299.112H634V800H559Z" fill="#18D914" stroke="#18D914" stroke-width="6"/>
<path d="M1502 800V229H1577V800H1502Z" fill="#3F90A2" stroke="#3F90A2" stroke-width="6"/>
<path d="M1502 800V299.112H1577V800H1502Z" fill="#18D914" stroke="#18D914" stroke-width="6"/>
<path d="M714 800V209H789V800H714Z" fill="#3F90A2" stroke="#3F90A2" stroke-width="6"/>
<path d="M714 800V281.542H789V800H714Z" fill="#18D914" stroke="#18D914" stroke-width="6"/>
<path d="M1657 800V209H1732V800H1657Z" fill="#3F90A2" stroke="#3F90A2" stroke-width="6"/>
<path d="M1657 800V281.542H1732V800H1657Z" fill="#18D914" stroke="#18D914" stroke-width="6"/>
<path d="M871 800V229H946V800H871Z" fill="#3F90A2" stroke="#3F90A2" stroke-width="6"/>
<path d="M871 800V299.112H946V800H871Z" fill="#18D914" stroke="#18D914" stroke-width="6"/>
<path d="M1814 800V229H1889V800H1814Z" fill="#3F90A2" stroke="#3F90A2" stroke-width="6"/>
<path d="M1814 800V299.112H1889V800H1814Z" fill="#18D914" stroke="#18D914" stroke-width="6"/>
<path d="M1032 800V264H1107V800H1032Z" fill="#3F90A2" stroke="#3F90A2" stroke-width="6"/>
<path d="M1032 800V329.859H1107V800H1032Z" fill="#18D914" stroke="#18D914" stroke-width="6"/>
<path d="M1975 800V264H2050V800H1975Z" fill="#3F90A2" stroke="#3F90A2" stroke-width="6"/>
<path d="M1975 800V329.859H2050V800H1975Z" fill="#18D914" stroke="#18D914" stroke-width="6"/>
<line x1="169" y1="640" x2="2092" y2="640" stroke="#1875FF" stroke-width="8"/>
<rect x="289" y="929" width="32" height="32" fill="#3F90A1"/>
<rect x="695" y="929" width="32" height="32" fill="#18D914"/>
<rect x="1549" y="929" width="32" height="32" fill="#1875FF"/>
</svg>
